<svg width="38" height="31" viewBox="0 0 38 31" fill="none" xmlns="http://www.w3.org/2000/svg">
<line x1="1.5" y1="20.5" x2="36.5" y2="20.5" stroke="#5D60EF" stroke-width="3" stroke-linecap="round"/>
<path fill-rule="evenodd" clip-rule="evenodd" d="M15.0566 1.92328C12.2553 2.62953 9.67006 4.08175 7.5929 6.15891C4.56755 9.18426 2.86792 13.2875 2.86792 17.566L19 17.566H35.1321C35.1321 13.2875 33.4324 9.18426 30.4071 6.15891C28.3299 4.08175 25.7446 2.62953 22.9434 1.92328V9.18865C22.9434 10.8455 21.6002 12.1887 19.9434 12.1887H18.0566C16.3997 12.1887 15.0566 10.8455 15.0566 9.18865V1.92328Z" fill="#5D60EF"/>
<rect x="16.4906" width="5.01887" height="10.7547" rx="1.5" fill="#5D60EF"/>
<line x1="26.0283" y1="29.6132" x2="26.0283" y2="25.5944" stroke="#5D60EF" stroke-linecap="round"/>
<path fill-rule="evenodd" clip-rule="evenodd" d="M25.0944 30.0733L25.0944 25.1344C18.538 25.3458 0.717041 26.371 0.717041 27.6038C0.717041 28.8367 18.538 29.8619 25.0944 30.0733Z" fill="#5D60EF"/>
<rect x="27.2454" y="30.1132" width="5.01887" height="2.86792" transform="rotate(-90 27.2454 30.1132)" fill="#5D60EF"/>
<path d="M30.8302 29.1888V26.0191C31.3981 25.4908 32.2174 25.0822 33.1963 25.0946C34.0729 25.1058 34.4741 25.2531 35.3259 25.887C36.3906 26.6795 37.5737 29.3208 37.2188 28.6605C36.9348 28.1322 36.1787 28.3165 35.7991 28.5284C35.4195 28.7403 33.7879 30.1132 32.7231 30.1132C31.6584 30.1132 31.0274 29.4529 30.8302 29.1888Z" fill="#5D60EF"/>
</svg>
