<svg width="799" height="812" viewBox="0 0 799 812" fill="none" xmlns="http://www.w3.org/2000/svg">
<rect x="332.792" y="608.195" width="206.002" height="63.7624" fill="#800D7D" fill-opacity="0.5"/>
<path d="M595.563 340.052L457.321 193.071L732.217 191.593L595.563 340.052Z" fill="#FF0000" fill-opacity="0.5"/>
<path d="M598.609 44.2391L444.632 198.216C441.704 201.145 441.704 205.893 444.632 208.822L590.028 354.218C592.957 357.147 597.706 357.147 600.635 354.218L749.308 205.545C752.237 202.616 752.237 197.867 749.308 194.938L598.609 44.2391Z" stroke="black" stroke-width="5"/>
<line x1="2.5" y1="-2.5" x2="242.147" y2="-2.5" transform="matrix(-0.707107 0.707107 0.707107 0.707107 656.654 17.3411)" stroke="black" stroke-width="5" stroke-linecap="round"/>
<path d="M204.859 425.912L60.9192 273.451L347.152 271.912L204.859 425.912Z" fill="#0019FA" fill-opacity="0.5"/>
<path d="M323.031 470.908H545.962C550.104 470.908 553.462 474.266 553.462 478.408V684.029C553.462 688.171 550.104 691.529 545.962 691.529H330.531C326.389 691.529 323.031 688.171 323.031 684.029V470.908Z" stroke="black" stroke-width="5"/>
<line x1="264.174" y1="490.432" x2="509.318" y2="490.432" stroke="black" stroke-width="5" stroke-linecap="round"/>
<path d="M201.157 121.011L358.792 278.646C361.721 281.575 361.721 286.324 358.792 289.253L213.396 434.649C210.467 437.578 205.719 437.578 202.79 434.649L50.4575 282.316C47.5285 279.387 47.5285 274.639 50.4575 271.71L201.157 121.011Z" stroke="black" stroke-width="5"/>
<line x1="145.733" y1="93.1973" x2="319.076" y2="266.541" stroke="black" stroke-width="5" stroke-linecap="round"/>
<path d="M391.65 367.771C391.65 378.655 382.866 387.479 372.031 387.479C361.195 387.479 352.412 378.655 352.412 367.771C352.412 356.886 372.031 323.717 372.031 323.717C372.031 323.717 391.65 356.886 391.65 367.771Z" fill="#0019FA" fill-opacity="0.5"/>
<path d="M470.127 294.199C470.127 305.083 461.343 313.907 450.508 313.907C439.672 313.907 430.888 305.083 430.888 294.199C430.888 283.314 450.508 250.145 450.508 250.145C450.508 250.145 470.127 283.314 470.127 294.199Z" fill="#FF0000" fill-opacity="0.5"/>
</svg>
